<svg class="main-svg" xmlns="http://www.w3.org/2000/svg" xmlns:xlink="http://www.w3.org/1999/xlink" width="1200" height="900" style="" viewBox="0 0 1200 900"><rect x="0" y="0" width="1200" height="900" style="fill: rgb(255, 255, 255); fill-opacity: 1;"/><defs id="defs-7a0b21"><g class="clips"><clipPath id="clip7a0b21polar-for-traces"><path d="M417.5,0A417.5,417.5 0,1,0 -417.5,-5.1129003864401994e-14A417.5,417.5 0,1,0 417.5,1.0225800772880399e-13Z" transform="translate(417.5,417.5)"/></clipPath></g><g class="gradients"/><g class="patterns"/></defs><g class="bglayer"/><g class="layer-below"><g class="imagelayer"/><g class="shapelayer"/></g><g class="cartesianlayer"/><g class="polarlayer"><g class="polar"><g class="polarsublayer draglayer"/><g class="polarsublayer plotbg"><path d="M417.5,0A417.5,417.5 0,1,0 -417.5,-5.1129003864401994e-14A417.5,417.5 0,1,0 417.5,1.0225800772880399e-13Z" transform="translate(567,442.5)" style="fill: rgb(255, 255, 255); fill-opacity: 1;"/></g><g class="polarsublayer backplot"><g class="maplayer"/></g><g class="polarsublayer angular-grid" style="fill: none;"><path class="angularaxisgrid" d="M567,442.5L984.5,442.5" style="stroke: rgb(180, 180, 180); stroke-opacity: 1; stroke-width: 1px;"/><path class="angularaxisgrid" d="M567,442.5L952.7197048234623,282.729666987575" style="stroke: rgb(180, 180, 180); stroke-opacity: 1; stroke-width: 1px;"/><path class="angularaxisgrid" d="M567,442.5L862.2170811453836,147.2829188546164" style="stroke: rgb(180, 180, 180); stroke-opacity: 1; stroke-width: 1px;"/><path class="angularaxisgrid" d="M567,442.5L726.770333012425,56.78029517653778" style="stroke: rgb(180, 180, 180); stroke-opacity: 1; stroke-width: 1px;"/><path class="angularaxisgrid" d="M567,442.5L567,25" style="stroke: rgb(180, 180, 180); stroke-opacity: 1; stroke-width: 1px;"/><path class="angularaxisgrid" d="M567,442.5L407.229666987575,56.78029517653778" style="stroke: rgb(180, 180, 180); stroke-opacity: 1; stroke-width: 1px;"/><path class="angularaxisgrid" d="M567,442.5L271.7829188546164,147.2829188546164" style="stroke: rgb(180, 180, 180); stroke-opacity: 1; stroke-width: 1px;"/><path class="angularaxisgrid" d="M567,442.5L181.28029517653778,282.729666987575" style="stroke: rgb(180, 180, 180); stroke-opacity: 1; stroke-width: 1px;"/><path class="angularaxisgrid" d="M567,442.5L149.5,442.49999999999994" style="stroke: rgb(180, 180, 180); stroke-opacity: 1; stroke-width: 1px;"/><path class="angularaxisgrid" d="M567,442.5L181.28029517653772,602.270333012425" style="stroke: rgb(180, 180, 180); stroke-opacity: 1; stroke-width: 1px;"/><path class="angularaxisgrid" d="M567,442.5L271.78291885461636,737.7170811453836" style="stroke: rgb(180, 180, 180); stroke-opacity: 1; stroke-width: 1px;"/><path class="angularaxisgrid" d="M567,442.5L407.2296669875748,828.219704823462" style="stroke: rgb(180, 180, 180); stroke-opacity: 1; stroke-width: 1px;"/><path class="angularaxisgrid" d="M567,442.5L566.9999999999999,860" style="stroke: rgb(180, 180, 180); stroke-opacity: 1; stroke-width: 1px;"/><path class="angularaxisgrid" d="M567,442.5L726.7703330124251,828.2197048234622" style="stroke: rgb(180, 180, 180); stroke-opacity: 1; stroke-width: 1px;"/><path class="angularaxisgrid" d="M567,442.5L862.2170811453835,737.7170811453836" style="stroke: rgb(180, 180, 180); stroke-opacity: 1; stroke-width: 1px;"/><path class="angularaxisgrid" d="M567,442.5L952.719704823462,602.2703330124252" style="stroke: rgb(180, 180, 180); stroke-opacity: 1; stroke-width: 1px;"/></g><g class="polarsublayer radial-grid" transform="translate(567,442.5)" style="fill: none;"><path class="xgrid" d="M37.95,0A37.95,37.95 0,1,0 -37.95,-4.647534602764206e-15A37.95,37.95 0,1,0 37.95,9.295069205528411e-15Z" style="stroke: rgb(180, 180, 180); stroke-opacity: 1; stroke-width: 1px;"/><path class="xgrid" d="M75.91,0A75.91,75.91 0,1,0 -75.91,-9.296293852327558e-15A75.91,75.91 0,1,0 75.91,1.8592587704655116e-14Z" style="stroke: rgb(180, 180, 180); stroke-opacity: 1; stroke-width: 1px;"/><path class="xgrid" d="M113.86,0A113.86,113.86 0,1,0 -113.86,-1.3943828455091763e-14A113.86,113.86 0,1,0 113.86,2.7887656910183526e-14Z" style="stroke: rgb(180, 180, 180); stroke-opacity: 1; stroke-width: 1px;"/><path class="xgrid" d="M151.82,0A151.82,151.82 0,1,0 -151.82,-1.8592587704655116e-14A151.82,151.82 0,1,0 151.82,3.718517540931023e-14Z" style="stroke: rgb(180, 180, 180); stroke-opacity: 1; stroke-width: 1px;"/><path class="xgrid" d="M189.77,0A189.77,189.77 0,1,0 -189.77,-2.3240122307419323e-14A189.77,189.77 0,1,0 189.77,4.6480244614838645e-14Z" style="stroke: rgb(180, 180, 180); stroke-opacity: 1; stroke-width: 1px;"/><path class="xgrid" d="M227.73,0A227.73,227.73 0,1,0 -227.73,-2.7888881556982674e-14A227.73,227.73 0,1,0 227.73,5.577776311396535e-14Z" style="stroke: rgb(180, 180, 180); stroke-opacity: 1; stroke-width: 1px;"/><path class="xgrid" d="M265.68,0A265.68,265.68 0,1,0 -265.68,-3.2536416159746884e-14A265.68,265.68 0,1,0 265.68,6.507283231949377e-14Z" style="stroke: rgb(180, 180, 180); stroke-opacity: 1; stroke-width: 1px;"/><path class="xgrid" d="M303.64,0A303.64,303.64 0,1,0 -303.64,-3.718517540931023e-14A303.64,303.64 0,1,0 303.64,7.437035081862046e-14Z" style="stroke: rgb(180, 180, 180); stroke-opacity: 1; stroke-width: 1px;"/><path class="xgrid" d="M341.59,0A341.59,341.59 0,1,0 -341.59,-4.183271001207443e-14A341.59,341.59 0,1,0 341.59,8.366542002414887e-14Z" style="stroke: rgb(180, 180, 180); stroke-opacity: 1; stroke-width: 1px;"/><path class="xgrid" d="M379.55,0A379.55,379.55 0,1,0 -379.55,-4.6481469261637794e-14A379.55,379.55 0,1,0 379.55,9.296293852327559e-14Z" style="stroke: rgb(180, 180, 180); stroke-opacity: 1; stroke-width: 1px;"/></g><g class="polarsublayer frontplot" transform="translate(149.5,25)"><g class="barlayer"/><g class="scatterlayer"><g class="trace scatter trace2c0a33" style="stroke-miterlimit: 2; opacity: 1;"><g class="fills" clip-path="url(#clip7a0b21polar-for-traces)"><g><path class="js-fill" d="M759.09,417.5L733.09,286.78L659.04,175.96L548.22,101.91L417.5,75.91L286.78,101.91L175.96,175.96L101.91,286.78L75.91,417.5L101.91,548.22L175.96,659.04L286.78,733.09L417.5,759.09L548.22,733.09L659.04,659.04L733.09,548.22Z" style="fill: rgb(200, 200, 200); fill-opacity: 0.2; stroke-width: 0;"/></g></g><g class="errorbars"/><g class="lines"><path class="js-line" d="M759.09,417.5L733.09,286.78L659.04,175.96L548.22,101.91L417.5,75.91L286.78,101.91L175.96,175.96L101.91,286.78L75.91,417.5L101.91,548.22L175.96,659.04L286.78,733.09L417.5,759.09L548.22,733.09L659.04,659.04L733.09,548.22" clip-path="url(#clip7a0b21polar-for-traces)" style="vector-effect: non-scaling-stroke; fill: none; stroke: rgb(0, 0, 0); stroke-opacity: 0; stroke-width: 2px; opacity: 1;"/></g><g class="points" clip-path="url(#clip7a0b21polar-for-traces)"/><g class="text" clip-path="url(#clip7a0b21polar-for-traces)"/></g><g class="trace scatter tracecbd966" style="stroke-miterlimit: 2; opacity: 1;"><g class="fills" clip-path="url(#clip7a0b21polar-for-traces)"><g><path class="js-fill" d="M683.18,417.5L662.96,315.83L605.37,229.63L519.17,172.04L417.5,151.82L315.83,172.04L229.63,229.63L172.04,315.83L151.82,417.5L172.04,519.17L229.63,605.37L315.83,662.96L417.5,683.18L519.17,662.96L605.37,605.37L662.96,519.17Z" style="fill: rgb(200, 200, 200); fill-opacity: 0.4; stroke-width: 0;"/></g></g><g class="errorbars"/><g class="lines"><path class="js-line" d="M683.18,417.5L662.96,315.83L605.37,229.63L519.17,172.04L417.5,151.82L315.83,172.04L229.63,229.63L172.04,315.83L151.82,417.5L172.04,519.17L229.63,605.37L315.83,662.96L417.5,683.18L519.17,662.96L605.37,605.37L662.96,519.17" clip-path="url(#clip7a0b21polar-for-traces)" style="vector-effect: non-scaling-stroke; fill: none; stroke: rgb(0, 0, 0); stroke-opacity: 0; stroke-width: 2px; opacity: 1;"/></g><g class="points" clip-path="url(#clip7a0b21polar-for-traces)"/><g class="text" clip-path="url(#clip7a0b21polar-for-traces)"/></g><g class="trace scatter trace07d884" style="stroke-miterlimit: 2; opacity: 1;"><g class="fills" clip-path="url(#clip7a0b21polar-for-traces)"><g><path class="js-fill" d="M607.27,417.5L592.83,344.88L551.69,283.31L490.12,242.17L417.5,227.73L344.88,242.17L283.31,283.31L242.17,344.88L227.73,417.5L242.17,490.12L283.31,551.69L344.88,592.83L417.5,607.27L490.12,592.83L551.69,551.69L592.83,490.12Z" style="fill: rgb(200, 200, 200); fill-opacity: 0.6; stroke-width: 0;"/></g></g><g class="errorbars"/><g class="lines"><path class="js-line" d="M607.27,417.5L592.83,344.88L551.69,283.31L490.12,242.17L417.5,227.73L344.88,242.17L283.31,283.31L242.17,344.88L227.73,417.5L242.17,490.12L283.31,551.69L344.88,592.83L417.5,607.27L490.12,592.83L551.69,551.69L592.83,490.12" clip-path="url(#clip7a0b21polar-for-traces)" style="vector-effect: non-scaling-stroke; fill: none; stroke: rgb(0, 0, 0); stroke-opacity: 0; stroke-width: 2px; opacity: 1;"/></g><g class="points" clip-path="url(#clip7a0b21polar-for-traces)"/><g class="text" clip-path="url(#clip7a0b21polar-for-traces)"/></g><g class="trace scatter trace8ffc76" style="stroke-miterlimit: 2; opacity: 1;"><g class="fills" clip-path="url(#clip7a0b21polar-for-traces)"><g><path class="js-fill" d="M464.09,417.5L487.63,388.45L465.92,369.08L433.08,379.88L417.5,377.96L402.65,381.66L385.97,385.97L381.34,402.52L378.89,417.5L381.91,432.24L390.66,444.34L402.98,452.57L417.5,483.81L432.37,453.39L444.34,444.34L691.82,531.13Z" style="fill: rgb(255, 255, 0); fill-opacity: 0.6; stroke-width: 0;"/></g></g><g class="errorbars"/><g class="lines"><path class="js-line" d="M464.09,417.5L487.63,388.45L465.92,369.08L433.08,379.88L417.5,377.96L402.65,381.66L385.97,385.97L381.34,402.52L378.89,417.5L381.91,432.24L390.66,444.34L402.98,452.57L417.5,483.81L432.37,453.39L444.34,444.34L691.82,531.13" clip-path="url(#clip7a0b21polar-for-traces)" style="vector-effect: non-scaling-stroke; fill: none; stroke: rgb(255, 255, 0); stroke-opacity: 0.6; stroke-width: 2px; opacity: 1;"/></g><g class="points"><path class="point" transform="translate(464.09,417.5)" d="M3,0A3,3 0 1,1 0,-3A3,3 0 0,1 3,0Z" style="opacity: 1; stroke-width: 0px; fill: rgb(255, 255, 0); fill-opacity: 1;"/><path class="point" transform="translate(487.63,388.45)" d="M3,0A3,3 0 1,1 0,-3A3,3 0 0,1 3,0Z" style="opacity: 1; stroke-width: 0px; fill: rgb(255, 255, 0); fill-opacity: 1;"/><path class="point" transform="translate(465.92,369.08)" d="M3,0A3,3 0 1,1 0,-3A3,3 0 0,1 3,0Z" style="opacity: 1; stroke-width: 0px; fill: rgb(255, 255, 0); fill-opacity: 1;"/><path class="point" transform="translate(433.08,379.88)" d="M3,0A3,3 0 1,1 0,-3A3,3 0 0,1 3,0Z" style="opacity: 1; stroke-width: 0px; fill: rgb(255, 255, 0); fill-opacity: 1;"/><path class="point" transform="translate(417.5,377.96)" d="M3,0A3,3 0 1,1 0,-3A3,3 0 0,1 3,0Z" style="opacity: 1; stroke-width: 0px; fill: rgb(255, 255, 0); fill-opacity: 1;"/><path class="point" transform="translate(402.65,381.66)" d="M3,0A3,3 0 1,1 0,-3A3,3 0 0,1 3,0Z" style="opacity: 1; stroke-width: 0px; fill: rgb(255, 255, 0); fill-opacity: 1;"/><path class="point" transform="translate(385.97,385.97)" d="M3,0A3,3 0 1,1 0,-3A3,3 0 0,1 3,0Z" style="opacity: 1; stroke-width: 0px; fill: rgb(255, 255, 0); fill-opacity: 1;"/><path class="point" transform="translate(381.34,402.52)" d="M3,0A3,3 0 1,1 0,-3A3,3 0 0,1 3,0Z" style="opacity: 1; stroke-width: 0px; fill: rgb(255, 255, 0); fill-opacity: 1;"/><path class="point" transform="translate(378.89,417.5)" d="M3,0A3,3 0 1,1 0,-3A3,3 0 0,1 3,0Z" style="opacity: 1; stroke-width: 0px; fill: rgb(255, 255, 0); fill-opacity: 1;"/><path class="point" transform="translate(381.91,432.24)" d="M3,0A3,3 0 1,1 0,-3A3,3 0 0,1 3,0Z" style="opacity: 1; stroke-width: 0px; fill: rgb(255, 255, 0); fill-opacity: 1;"/><path class="point" transform="translate(390.66,444.34)" d="M3,0A3,3 0 1,1 0,-3A3,3 0 0,1 3,0Z" style="opacity: 1; stroke-width: 0px; fill: rgb(255, 255, 0); fill-opacity: 1;"/><path class="point" transform="translate(402.98,452.57)" d="M3,0A3,3 0 1,1 0,-3A3,3 0 0,1 3,0Z" style="opacity: 1; stroke-width: 0px; fill: rgb(255, 255, 0); fill-opacity: 1;"/><path class="point" transform="translate(417.5,483.81)" d="M3,0A3,3 0 1,1 0,-3A3,3 0 0,1 3,0Z" style="opacity: 1; stroke-width: 0px; fill: rgb(255, 255, 0); fill-opacity: 1;"/><path class="point" transform="translate(432.37,453.39)" d="M3,0A3,3 0 1,1 0,-3A3,3 0 0,1 3,0Z" style="opacity: 1; stroke-width: 0px; fill: rgb(255, 255, 0); fill-opacity: 1;"/><path class="point" transform="translate(444.34,444.34)" d="M3,0A3,3 0 1,1 0,-3A3,3 0 0,1 3,0Z" style="opacity: 1; stroke-width: 0px; fill: rgb(255, 255, 0); fill-opacity: 1;"/><path class="point" transform="translate(691.82,531.13)" d="M3,0A3,3 0 1,1 0,-3A3,3 0 0,1 3,0Z" style="opacity: 1; stroke-width: 0px; fill: rgb(255, 255, 0); fill-opacity: 1;"/></g><g class="text"><g class="textpoint"/><g class="textpoint"/><g class="textpoint"/><g class="textpoint"/><g class="textpoint"/><g class="textpoint"/><g class="textpoint"/><g class="textpoint"/><g class="textpoint"/><g class="textpoint"/><g class="textpoint"/><g class="textpoint"/><g class="textpoint"/><g class="textpoint"/><g class="textpoint"/><g class="textpoint"/></g></g><g class="trace scatter tracef3d580" style="stroke-miterlimit: 2; opacity: 1;"><g class="fills" clip-path="url(#clip7a0b21polar-for-traces)"><g><path class="js-fill" d="M455.45,417.5L452.57,402.98L444.34,390.66L432.02,382.43L417.5,379.55L402.98,382.43L390.66,390.66L382.43,402.98L379.55,417.5L382.43,432.02L390.66,444.34L402.98,452.57L417.5,455.45L432.02,452.57L444.34,444.34L803.22,577.27Z" style="fill: rgb(0, 100, 0); fill-opacity: 0.6; stroke-width: 0;"/></g></g><g class="errorbars"/><g class="lines"><path class="js-line" d="M455.45,417.5L452.57,402.98L444.34,390.66L432.02,382.43L417.5,379.55L402.98,382.43L390.66,390.66L382.43,402.98L379.55,417.5L382.43,432.02L390.66,444.34L402.98,452.57L417.5,455.45L432.02,452.57L444.34,444.34L803.22,577.27" clip-path="url(#clip7a0b21polar-for-traces)" style="vector-effect: non-scaling-stroke; fill: none; stroke: rgb(0, 100, 0); stroke-opacity: 0.6; stroke-width: 2px; opacity: 1;"/></g><g class="points"><path class="point" transform="translate(455.45,417.5)" d="M3,0A3,3 0 1,1 0,-3A3,3 0 0,1 3,0Z" style="opacity: 1; stroke-width: 0px; fill: rgb(0, 100, 0); fill-opacity: 1;"/><path class="point" transform="translate(452.57,402.98)" d="M3,0A3,3 0 1,1 0,-3A3,3 0 0,1 3,0Z" style="opacity: 1; stroke-width: 0px; fill: rgb(0, 100, 0); fill-opacity: 1;"/><path class="point" transform="translate(444.34,390.66)" d="M3,0A3,3 0 1,1 0,-3A3,3 0 0,1 3,0Z" style="opacity: 1; stroke-width: 0px; fill: rgb(0, 100, 0); fill-opacity: 1;"/><path class="point" transform="translate(432.02,382.43)" d="M3,0A3,3 0 1,1 0,-3A3,3 0 0,1 3,0Z" style="opacity: 1; stroke-width: 0px; fill: rgb(0, 100, 0); fill-opacity: 1;"/><path class="point" transform="translate(417.5,379.55)" d="M3,0A3,3 0 1,1 0,-3A3,3 0 0,1 3,0Z" style="opacity: 1; stroke-width: 0px; fill: rgb(0, 100, 0); fill-opacity: 1;"/><path class="point" transform="translate(402.98,382.43)" d="M3,0A3,3 0 1,1 0,-3A3,3 0 0,1 3,0Z" style="opacity: 1; stroke-width: 0px; fill: rgb(0, 100, 0); fill-opacity: 1;"/><path class="point" transform="translate(390.66,390.66)" d="M3,0A3,3 0 1,1 0,-3A3,3 0 0,1 3,0Z" style="opacity: 1; stroke-width: 0px; fill: rgb(0, 100, 0); fill-opacity: 1;"/><path class="point" transform="translate(382.43,402.98)" d="M3,0A3,3 0 1,1 0,-3A3,3 0 0,1 3,0Z" style="opacity: 1; stroke-width: 0px; fill: rgb(0, 100, 0); fill-opacity: 1;"/><path class="point" transform="translate(379.55,417.5)" d="M3,0A3,3 0 1,1 0,-3A3,3 0 0,1 3,0Z" style="opacity: 1; stroke-width: 0px; fill: rgb(0, 100, 0); fill-opacity: 1;"/><path class="point" transform="translate(382.43,432.02)" d="M3,0A3,3 0 1,1 0,-3A3,3 0 0,1 3,0Z" style="opacity: 1; stroke-width: 0px; fill: rgb(0, 100, 0); fill-opacity: 1;"/><path class="point" transform="translate(390.66,444.34)" d="M3,0A3,3 0 1,1 0,-3A3,3 0 0,1 3,0Z" style="opacity: 1; stroke-width: 0px; fill: rgb(0, 100, 0); fill-opacity: 1;"/><path class="point" transform="translate(402.98,452.57)" d="M3,0A3,3 0 1,1 0,-3A3,3 0 0,1 3,0Z" style="opacity: 1; stroke-width: 0px; fill: rgb(0, 100, 0); fill-opacity: 1;"/><path class="point" transform="translate(417.5,455.45)" d="M3,0A3,3 0 1,1 0,-3A3,3 0 0,1 3,0Z" style="opacity: 1; stroke-width: 0px; fill: rgb(0, 100, 0); fill-opacity: 1;"/><path class="point" transform="translate(432.02,452.57)" d="M3,0A3,3 0 1,1 0,-3A3,3 0 0,1 3,0Z" style="opacity: 1; stroke-width: 0px; fill: rgb(0, 100, 0); fill-opacity: 1;"/><path class="point" transform="translate(444.34,444.34)" d="M3,0A3,3 0 1,1 0,-3A3,3 0 0,1 3,0Z" style="opacity: 1; stroke-width: 0px; fill: rgb(0, 100, 0); fill-opacity: 1;"/><path class="point" transform="translate(803.22,577.27)" d="M3,0A3,3 0 1,1 0,-3A3,3 0 0,1 3,0Z" style="opacity: 1; stroke-width: 0px; fill: rgb(0, 100, 0); fill-opacity: 1;"/></g><g class="text"><g class="textpoint"/><g class="textpoint"/><g class="textpoint"/><g class="textpoint"/><g class="textpoint"/><g class="textpoint"/><g class="textpoint"/><g class="textpoint"/><g class="textpoint"/><g class="textpoint"/><g class="textpoint"/><g class="textpoint"/><g class="textpoint"/><g class="textpoint"/><g class="textpoint"/><g class="textpoint"/></g></g></g></g><g class="polarsublayer angular-line"><path d="M417.5,0A417.5,417.5 0,1,0 -417.5,-5.1129003864401994e-14A417.5,417.5 0,1,0 417.5,1.0225800772880399e-13Z" transform="translate(567,442.5)" stroke-width="1" style="fill: none; stroke: rgb(68, 68, 68); stroke-opacity: 1;"/></g><g class="polarsublayer radial-line"><line x1="0" y1="0" x2="417.5" y2="0" transform="translate(567,442.5)" stroke-width="1" style="fill: none; stroke: rgb(68, 68, 68); stroke-opacity: 1;"/></g><g class="polarsublayer angular-axis"><path class="angularaxistick ticks" d="M0.5,0h5" transform="translate(984.5,442.5)" style="stroke: rgb(68, 68, 68); stroke-opacity: 1; stroke-width: 1px;"/><path class="angularaxistick ticks" d="M0.5,0h5" transform="translate(952.7197048234623,282.729666987575)rotate(-22.5)" style="stroke: rgb(68, 68, 68); stroke-opacity: 1; stroke-width: 1px;"/><path class="angularaxistick ticks" d="M0.5,0h5" transform="translate(862.2170811453836,147.2829188546164)rotate(-45)" style="stroke: rgb(68, 68, 68); stroke-opacity: 1; stroke-width: 1px;"/><path class="angularaxistick ticks" d="M0.5,0h5" transform="translate(726.770333012425,56.78029517653778)rotate(-67.5)" style="stroke: rgb(68, 68, 68); stroke-opacity: 1; stroke-width: 1px;"/><path class="angularaxistick ticks" d="M0.5,0h5" transform="translate(567,25)rotate(-90)" style="stroke: rgb(68, 68, 68); stroke-opacity: 1; stroke-width: 1px;"/><path class="angularaxistick ticks" d="M0.5,0h5" transform="translate(407.229666987575,56.78029517653778)rotate(-112.5)" style="stroke: rgb(68, 68, 68); stroke-opacity: 1; stroke-width: 1px;"/><path class="angularaxistick ticks" d="M0.5,0h5" transform="translate(271.7829188546164,147.2829188546164)rotate(-135)" style="stroke: rgb(68, 68, 68); stroke-opacity: 1; stroke-width: 1px;"/><path class="angularaxistick ticks" d="M0.5,0h5" transform="translate(181.28029517653778,282.729666987575)rotate(-157.5)" style="stroke: rgb(68, 68, 68); stroke-opacity: 1; stroke-width: 1px;"/><path class="angularaxistick ticks" d="M0.5,0h5" transform="translate(149.5,442.49999999999994)rotate(-180)" style="stroke: rgb(68, 68, 68); stroke-opacity: 1; stroke-width: 1px;"/><path class="angularaxistick ticks" d="M0.5,0h5" transform="translate(181.28029517653772,602.270333012425)rotate(-202.5)" style="stroke: rgb(68, 68, 68); stroke-opacity: 1; stroke-width: 1px;"/><path class="angularaxistick ticks" d="M0.5,0h5" transform="translate(271.78291885461636,737.7170811453836)rotate(-225)" style="stroke: rgb(68, 68, 68); stroke-opacity: 1; stroke-width: 1px;"/><path class="angularaxistick ticks" d="M0.5,0h5" transform="translate(407.2296669875748,828.219704823462)rotate(-247.49999999999997)" style="stroke: rgb(68, 68, 68); stroke-opacity: 1; stroke-width: 1px;"/><path class="angularaxistick ticks" d="M0.5,0h5" transform="translate(566.9999999999999,860)rotate(-270)" style="stroke: rgb(68, 68, 68); stroke-opacity: 1; stroke-width: 1px;"/><path class="angularaxistick ticks" d="M0.5,0h5" transform="translate(726.7703330124251,828.2197048234622)rotate(-292.50000000000006)" style="stroke: rgb(68, 68, 68); stroke-opacity: 1; stroke-width: 1px;"/><path class="angularaxistick ticks" d="M0.5,0h5" transform="translate(862.2170811453835,737.7170811453836)rotate(-315)" style="stroke: rgb(68, 68, 68); stroke-opacity: 1; stroke-width: 1px;"/><path class="angularaxistick ticks" d="M0.5,0h5" transform="translate(952.719704823462,602.2703330124252)rotate(-337.49999999999994)" style="stroke: rgb(68, 68, 68); stroke-opacity: 1; stroke-width: 1px;"/><g class="angularaxistick"><text text-anchor="start" x="8.3" y="4.8999999999999995" transform="translate(984.5,442.5)" style="font-family: Brill; font-size: 14px; fill: rgb(68, 68, 68); fill-opacity: 1; white-space: pre; opacity: 1;">rhetoric / eloquence (balāġaŧ)</text></g><g class="angularaxistick"><text text-anchor="start" x="7.66820011984368" y="0.2792236100528074" transform="translate(952.7197048234623,282.729666987575)" style="font-family: Brill; font-size: 14px; fill: rgb(68, 68, 68); fill-opacity: 1; white-space: pre; opacity: 1;">bibliographies (fahāris kutubiyyaŧ)</text></g><g class="angularaxistick"><text text-anchor="start" x="5.868986283848345" y="-4.384062043356595" transform="translate(862.2170811453836,147.2829188546164)" style="font-family: Brill; font-size: 14px; fill: rgb(68, 68, 68); fill-opacity: 1; white-space: pre; opacity: 1;">chronicles (tawāriḫ)</text></g><g class="angularaxistick"><text text-anchor="start" x="3.176272488630246" y="-8.379913992286344" transform="translate(726.770333012425,56.78029517653778)" style="font-family: Brill; font-size: 14px; fill: rgb(68, 68, 68); fill-opacity: 1; white-space: pre; opacity: 1;">dictionaries (maʿājim luġawīyyaŧ)</text></g><g class="angularaxistick"><text text-anchor="middle" x="5.082284216461516e-16" y="-11.100000000000001" transform="translate(567,25)" style="font-family: Brill; font-size: 14px; fill: rgb(68, 68, 68); fill-opacity: 1; white-space: pre; opacity: 1;">doxography (milal / niḥal)</text></g><g class="angularaxistick"><text text-anchor="end" x="-3.176272488630245" y="-8.379913992286344" transform="translate(407.229666987575,56.78029517653778)" style="font-family: Brill; font-size: 14px; fill: rgb(68, 68, 68); fill-opacity: 1; white-space: pre; opacity: 1;">legal texts (fiqh)</text></g><g class="angularaxistick"><text text-anchor="end" x="-5.868986283848344" y="-4.384062043356597" transform="translate(271.7829188546164,147.2829188546164)" style="font-family: Brill; font-size: 14px; fill: rgb(68, 68, 68); fill-opacity: 1; white-space: pre; opacity: 1;">geography (juġrāfiyā)</text></g><g class="angularaxistick"><text text-anchor="end" x="-7.66820011984368" y="0.2792236100528065" transform="translate(181.28029517653778,282.729666987575)" style="font-family: Brill; font-size: 14px; fill: rgb(68, 68, 68); fill-opacity: 1; white-space: pre; opacity: 1;">grammar (naḥw)</text></g><g class="angularaxistick"><text text-anchor="end" x="-8.3" y="4.899999999999998" transform="translate(149.5,442.49999999999994)" style="font-family: Brill; font-size: 14px; fill: rgb(68, 68, 68); fill-opacity: 1; white-space: pre; opacity: 1;">“Greek” (yūnānīyāt)</text></g><g class="angularaxistick"><text text-anchor="end" x="-7.668200119843681" y="13.060850251046805" transform="translate(181.28029517653772,602.270333012425)" style="font-family: Brill; font-size: 14px; fill: rgb(68, 68, 68); fill-opacity: 1; white-space: pre; opacity: 1;">Prophetic tradition (ḥadīṯ)</text></g><g class="angularaxistick"><text text-anchor="end" x="-5.868986283848346" y="19.23330444827409" transform="translate(271.78291885461636,737.7170811453836)" style="font-family: Brill; font-size: 14px; fill: rgb(68, 68, 68); fill-opacity: 1; white-space: pre; opacity: 1;">“scholastic theology” (kalām)</text></g><g class="angularaxistick"><text text-anchor="end" x="-3.17627248863025" y="22.477662393590634" transform="translate(407.2296669875748,828.219704823462)" style="font-family: Brill; font-size: 14px; fill: rgb(68, 68, 68); fill-opacity: 1; white-space: pre; opacity: 1;">medical texts (ṭibb)</text></g><g class="angularaxistick"><text text-anchor="middle" x="-1.5246852649384548e-15" y="22.3" transform="translate(566.9999999999999,860)" style="font-family: Brill; font-size: 14px; fill: rgb(68, 68, 68); fill-opacity: 1; white-space: pre; opacity: 1;">poetry (šiʿr)</text></g><g class="angularaxistick"><text text-anchor="start" x="3.1762724886302474" y="22.47766239359063" transform="translate(726.7703330124251,828.2197048234622)" style="font-family: Brill; font-size: 14px; fill: rgb(68, 68, 68); fill-opacity: 1; white-space: pre; opacity: 1;">life of the Prophet (sīraŧ)</text></g><g class="angularaxistick"><text text-anchor="start" x="5.8689862838483435" y="19.233304448274097" transform="translate(862.2170811453835,737.7170811453836)" style="font-family: Brill; font-size: 14px; fill: rgb(68, 68, 68); fill-opacity: 1; white-space: pre; opacity: 1;">Qurʾānic exegesis (tafsīr)</text></g><g class="angularaxistick"><text text-anchor="start" x="7.668200119843679" y="13.06085025104682" transform="translate(952.719704823462,602.2703330124252)" style="font-family: Brill; font-size: 14px; fill: rgb(68, 68, 68); fill-opacity: 1; white-space: pre; opacity: 1;">biographical collections (tarājim)</text></g></g><g class="polarsublayer radial-axis" transform="translate(567,442.5)"><path class="xtick ticks" d="M0,0.5v5" transform="" style="stroke: rgb(68, 68, 68); stroke-opacity: 1; stroke-width: 1px;"/><path class="xtick ticks" d="M0,0.5v5" transform="translate(37.95,0)" style="stroke: rgb(68, 68, 68); stroke-opacity: 1; stroke-width: 1px;"/><path class="xtick ticks" d="M0,0.5v5" transform="translate(75.91,0)" style="stroke: rgb(68, 68, 68); stroke-opacity: 1; stroke-width: 1px;"/><path class="xtick ticks" d="M0,0.5v5" transform="translate(113.86,0)" style="stroke: rgb(68, 68, 68); stroke-opacity: 1; stroke-width: 1px;"/><path class="xtick ticks" d="M0,0.5v5" transform="translate(151.82,0)" style="stroke: rgb(68, 68, 68); stroke-opacity: 1; stroke-width: 1px;"/><path class="xtick ticks" d="M0,0.5v5" transform="translate(189.77,0)" style="stroke: rgb(68, 68, 68); stroke-opacity: 1; stroke-width: 1px;"/><path class="xtick ticks" d="M0,0.5v5" transform="translate(227.73,0)" style="stroke: rgb(68, 68, 68); stroke-opacity: 1; stroke-width: 1px;"/><path class="xtick ticks" d="M0,0.5v5" transform="translate(265.68,0)" style="stroke: rgb(68, 68, 68); stroke-opacity: 1; stroke-width: 1px;"/><path class="xtick ticks" d="M0,0.5v5" transform="translate(303.64,0)" style="stroke: rgb(68, 68, 68); stroke-opacity: 1; stroke-width: 1px;"/><path class="xtick ticks" d="M0,0.5v5" transform="translate(341.59,0)" style="stroke: rgb(68, 68, 68); stroke-opacity: 1; stroke-width: 1px;"/><path class="xtick ticks" d="M0,0.5v5" transform="translate(379.55,0)" style="stroke: rgb(68, 68, 68); stroke-opacity: 1; stroke-width: 1px;"/><path class="xtick ticks" d="M0,0.5v5" transform="translate(417.5,0)" style="stroke: rgb(68, 68, 68); stroke-opacity: 1; stroke-width: 1px;"/><g class="xtick"><text text-anchor="middle" x="0" y="22.3" transform="" style="font-family: Brill; font-size: 14px; fill: rgb(68, 68, 68); fill-opacity: 1; white-space: pre; opacity: 1;">−0.1</text></g><g class="xtick"><text text-anchor="middle" x="0" y="22.3" transform="translate(37.95,0)" style="font-family: Brill; font-size: 14px; fill: rgb(68, 68, 68); fill-opacity: 1; white-space: pre; opacity: 1;">0</text></g><g class="xtick"><text text-anchor="middle" x="0" y="22.3" transform="translate(75.91,0)" style="font-family: Brill; font-size: 14px; fill: rgb(68, 68, 68); fill-opacity: 1; white-space: pre; opacity: 1;">0.1</text></g><g class="xtick"><text text-anchor="middle" x="0" y="22.3" transform="translate(113.86,0)" style="font-family: Brill; font-size: 14px; fill: rgb(68, 68, 68); fill-opacity: 1; white-space: pre; opacity: 1;">0.2</text></g><g class="xtick"><text text-anchor="middle" x="0" y="22.3" transform="translate(151.82,0)" style="font-family: Brill; font-size: 14px; fill: rgb(68, 68, 68); fill-opacity: 1; white-space: pre; opacity: 1;">0.3</text></g><g class="xtick"><text text-anchor="middle" x="0" y="22.3" transform="translate(189.77,0)" style="font-family: Brill; font-size: 14px; fill: rgb(68, 68, 68); fill-opacity: 1; white-space: pre; opacity: 1;">0.4</text></g><g class="xtick"><text text-anchor="middle" x="0" y="22.3" transform="translate(227.73,0)" style="font-family: Brill; font-size: 14px; fill: rgb(68, 68, 68); fill-opacity: 1; white-space: pre; opacity: 1;">0.5</text></g><g class="xtick"><text text-anchor="middle" x="0" y="22.3" transform="translate(265.68,0)" style="font-family: Brill; font-size: 14px; fill: rgb(68, 68, 68); fill-opacity: 1; white-space: pre; opacity: 1;">0.6</text></g><g class="xtick"><text text-anchor="middle" x="0" y="22.3" transform="translate(303.64,0)" style="font-family: Brill; font-size: 14px; fill: rgb(68, 68, 68); fill-opacity: 1; white-space: pre; opacity: 1;">0.7</text></g><g class="xtick"><text text-anchor="middle" x="0" y="22.3" transform="translate(341.59,0)" style="font-family: Brill; font-size: 14px; fill: rgb(68, 68, 68); fill-opacity: 1; white-space: pre; opacity: 1;">0.8</text></g><g class="xtick"><text text-anchor="middle" x="0" y="22.3" transform="translate(379.55,0)" style="font-family: Brill; font-size: 14px; fill: rgb(68, 68, 68); fill-opacity: 1; white-space: pre; opacity: 1;">0.9</text></g><g class="xtick"><text text-anchor="middle" x="0" y="22.3" transform="translate(417.5,0)" style="font-family: Brill; font-size: 14px; fill: rgb(68, 68, 68); fill-opacity: 1; white-space: pre; opacity: 1;">1</text></g></g></g></g><g class="ternarylayer"/><g class="geolayer"/><g class="funnelarealayer"/><g class="pielayer"/><g class="iciclelayer"/><g class="treemaplayer"/><g class="sunburstlayer"/><g class="glimages"/><defs id="topdefs-7a0b21"><g class="clips"/><clipPath id="legend7a0b21"><rect width="96" height="53" x="0" y="0"/></clipPath></defs><g class="layer-above"><g class="imagelayer"/><g class="shapelayer"/></g><g class="infolayer"><g class="legend" pointer-events="all" transform="translate(1094.28,25)"><rect class="bg" shape-rendering="crispEdges" width="96" height="53" x="0" y="0" style="stroke: rgb(68, 68, 68); stroke-opacity: 1; fill: rgb(255, 255, 255); fill-opacity: 1; stroke-width: 0px;"/><g class="scrollbox" transform="" clip-path="url(#legend7a0b21)"><g class="groups"><g class="traces" transform="translate(0,15.6)" style="opacity: 1;"><text class="legendtext" text-anchor="start" x="40" y="5.46" style="font-family: Brill; font-size: 14px; fill: rgb(68, 68, 68); fill-opacity: 1; white-space: pre;">rolling</text><g class="layers" style="opacity: 1;"><g class="legendfill"><path class="js-fill" d="M5,0h30v6h-30z" style="stroke-width: 0; fill: rgb(255, 255, 0); fill-opacity: 0.6;"/></g><g class="legendlines"><path class="js-line" d="M5,0h30" style="fill: none; stroke: rgb(255, 255, 0); stroke-opacity: 0.6; stroke-width: 2px;"/></g><g class="legendsymbols"><g class="legendpoints"><path class="scatterpts" transform="translate(20,0)" d="M3,0A3,3 0 1,1 0,-3A3,3 0 0,1 3,0Z" style="opacity: 1; stroke-width: 0px; fill: rgb(255, 255, 0); fill-opacity: 1;"/></g></g></g><rect class="legendtoggle" x="0" y="-10.6" width="90.15625" height="21.2" style="fill: rgb(0, 0, 0); fill-opacity: 0;"/></g><g class="traces" transform="translate(0,36.8)" style="opacity: 1;"><text class="legendtext" text-anchor="start" x="40" y="5.46" style="font-family: Brill; font-size: 14px; fill: rgb(68, 68, 68); fill-opacity: 1; white-space: pre;">complete</text><g class="layers" style="opacity: 1;"><g class="legendfill"><path class="js-fill" d="M5,0h30v6h-30z" style="stroke-width: 0; fill: rgb(0, 100, 0); fill-opacity: 0.6;"/></g><g class="legendlines"><path class="js-line" d="M5,0h30" style="fill: none; stroke: rgb(0, 100, 0); stroke-opacity: 0.6; stroke-width: 2px;"/></g><g class="legendsymbols"><g class="legendpoints"><path class="scatterpts" transform="translate(20,0)" d="M3,0A3,3 0 1,1 0,-3A3,3 0 0,1 3,0Z" style="opacity: 1; stroke-width: 0px; fill: rgb(0, 100, 0); fill-opacity: 1;"/></g></g></g><rect class="legendtoggle" x="0" y="-10.6" width="90.15625" height="21.2" style="fill: rgb(0, 0, 0); fill-opacity: 0;"/></g></g></g><rect class="scrollbar" rx="20" ry="3" width="0" height="0" x="0" y="0" style="fill: rgb(128, 139, 164); fill-opacity: 1;"/></g><g class="g-gtitle"/><g class="g-polartitle"/><g class="annotation" data-index="0" style="opacity: 1;"><g class="annotation-text-g" transform="rotate(0,908,419.65)"><g class="cursor-pointer" transform="translate(742,405)"><rect class="bg" x="0.5" y="0.5" width="331" height="28" style="stroke-width: 1px; stroke: rgb(0, 0, 0); stroke-opacity: 0; fill: rgb(0, 0, 0); fill-opacity: 0;"/><text class="annotation-text" text-anchor="middle" x="165.859375" y="20.5" style="font-family: Brill; font-size: 25px; fill: rgb(68, 68, 68); fill-opacity: 1; white-space: pre;">0626YaqutHamawi.MucjamUdaba</text></g></g></g></g></svg>