<?xml version="1.0" encoding="utf-8"?>
<!-- Generator: Adobe Illustrator 22.1.0, SVG Export Plug-In . SVG Version: 6.00 Build 0)  -->
<svg version="1.1" id="Layer_1" xmlns="http://www.w3.org/2000/svg" xmlns:xlink="http://www.w3.org/1999/xlink" x="0px" y="0px"
	 viewBox="0 0 560 288" style="enable-background:new 0 0 560 288;" xml:space="preserve">
<style type="text/css">
	.st0{fill:#FFFFFF;stroke:#000000;stroke-miterlimit:10;}
	.st1{font-family:'Brill-Roman';}
	.st2{font-size:12px;}
	.st3{font-family:'Brill-Bold';}
	.st4{font-family:'Brill-Italic';}
	.st5{fill:none;stroke:#000000;stroke-width:4;stroke-miterlimit:10;}
</style>
<rect x="1.9" y="2.5" class="st0" width="20.2" height="19.8"/>
<rect x="22.1" y="2.5" class="st0" width="74.5" height="19.8"/>
<rect x="1.9" y="22.3" class="st0" width="20.2" height="19.8"/>
<rect x="22.1" y="22.3" class="st0" width="74.5" height="19.8"/>
<rect x="1.9" y="42.1" class="st0" width="20.2" height="19.8"/>
<rect x="22.1" y="42.1" class="st0" width="74.5" height="19.8"/>
<rect x="1.9" y="62" class="st0" width="20.2" height="19.8"/>
<rect x="22.1" y="62" class="st0" width="74.5" height="19.8"/>
<rect x="1.9" y="81.8" class="st0" width="20.2" height="19.8"/>
<rect x="22.1" y="81.8" class="st0" width="74.5" height="19.8"/>
<text transform="matrix(1 0 0 1 9.8194 35.7789)" class="st1 st2">1</text>
<text transform="matrix(1 0 0 1 9.8192 55.8022)" class="st1 st2">2</text>
<text transform="matrix(1 0 0 1 7.0282 15.9414)" class="st3 st2">ID</text>
<text transform="matrix(1 0 0 1 28.9817 15.9415)" class="st3 st2">PERSON</text>
<text transform="matrix(1 0 0 1 28.9819 55.8025)" class="st1 st2">al-Ḏahabī</text>
<text transform="matrix(1 0 0 1 28.982 35.7785)" class="st1 st2">Ibn al-Jawzī</text>
<text transform="matrix(1 0 0 1 9.8196 74.6329)" class="st1 st2">3</text>
<text transform="matrix(1 0 0 1 28.9816 75.9654)" class="st1 st2">al-Ṣafadī</text>
<text transform="matrix(1 0 0 1 8.8227 95.8085)" class="st1 st2">...</text>
<text transform="matrix(1 0 0 1 28.9823 95.8084)" class="st1 st2">... ... ... ...</text>
<rect x="190.3" y="36.1" class="st0" width="72.2" height="19.8"/>
<rect x="190.3" y="55.9" class="st0" width="72.2" height="19.8"/>
<rect x="190.3" y="75.8" class="st0" width="72.2" height="19.8"/>
<rect x="190.3" y="95.6" class="st0" width="72.2" height="19.8"/>
<rect x="190.3" y="115.5" class="st0" width="72.2" height="19.8"/>
<text transform="matrix(1 0 0 1 197.23 49.5724)" class="st3 st2">PERSON</text>
<text transform="matrix(1 0 0 1 197.2302 69.4097)" class="st1 st2">al-Ḏahabī</text>
<text transform="matrix(1 0 0 1 197.2299 89.4331)" class="st1 st2">Ibn al-Jawzī</text>
<text transform="matrix(1 0 0 1 197.2303 108.2638)" class="st1 st2">al-Ṣafadī</text>
<text transform="matrix(1 0 0 1 197.2306 129.4393)" class="st1 st2">... ... ... ...</text>
<rect x="262" y="36.1" class="st0" width="60.6" height="19.8"/>
<rect x="262" y="55.9" class="st0" width="60.6" height="19.8"/>
<rect x="262" y="75.8" class="st0" width="60.6" height="19.8"/>
<rect x="262" y="95.6" class="st0" width="60.6" height="19.8"/>
<rect x="262" y="115.5" class="st0" width="60.6" height="19.8"/>
<text transform="matrix(1 0 0 1 268.9276 49.5724)" class="st3 st2">BORN</text>
<text transform="matrix(1 0 0 1 268.9281 129.4393)" class="st1 st2">... ... ... ...</text>
<rect x="322.2" y="36.1" class="st0" width="60.6" height="19.8"/>
<rect x="322.2" y="55.9" class="st0" width="60.6" height="19.8"/>
<rect x="322.2" y="75.8" class="st0" width="60.6" height="19.8"/>
<rect x="322.2" y="95.6" class="st0" width="60.6" height="19.8"/>
<rect x="322.2" y="115.5" class="st0" width="60.6" height="19.8"/>
<text transform="matrix(1 0 0 1 329.0705 49.5724)" class="st3 st2">DIED</text>
<text transform="matrix(1 0 0 1 329.0706 89.4328)" class="st1 st2">Baġdād</text>
<text transform="matrix(1 0 0 1 268.9279 69.4098)" class="st1 st2">Dimašq</text>
<text transform="matrix(1 0 0 1 329.071 129.4393)" class="st1 st2">... ... ... ...</text>
<text transform="matrix(1 0 0 1 268.9283 89.4329)" class="st1 st2">Baġdād</text>
<text transform="matrix(1 0 0 1 329.0709 69.4096)" class="st1 st2">Dimašq</text>
<rect x="476.6" y="2.4" class="st0" width="20.2" height="19.8"/>
<rect x="496.8" y="2.4" class="st0" width="60.6" height="19.8"/>
<rect x="476.6" y="22.3" class="st0" width="20.2" height="19.8"/>
<rect x="496.8" y="22.3" class="st0" width="60.6" height="19.8"/>
<rect x="476.6" y="42.1" class="st0" width="20.2" height="19.8"/>
<rect x="496.8" y="42.1" class="st0" width="60.6" height="19.8"/>
<rect x="476.6" y="61.9" class="st0" width="20.2" height="19.8"/>
<rect x="496.8" y="61.9" class="st0" width="60.6" height="19.8"/>
<text transform="matrix(1 0 0 1 484.4958 35.7396)" class="st1 st2">1</text>
<text transform="matrix(1 0 0 1 484.4956 55.7628)" class="st1 st2">2</text>
<text transform="matrix(1 0 0 1 481.7047 15.902)" class="st3 st2">ID</text>
<text transform="matrix(1 0 0 1 501.6581 15.9021)" class="st3 st2">PLACE</text>
<text transform="matrix(1 0 0 1 501.6583 35.7394)" class="st1 st2">Baġdād</text>
<text transform="matrix(1 0 0 1 501.658 55.7628)" class="st1 st2">Dimašq</text>
<text transform="matrix(1 0 0 1 484.496 74.5935)" class="st1 st2">3</text>
<text transform="matrix(1 0 0 1 501.6584 75.9264)" class="st1 st2">Ṣafad</text>
<rect x="476.6" y="81.7" class="st0" width="20.2" height="19.8"/>
<rect x="496.8" y="81.7" class="st0" width="60.6" height="19.8"/>
<text transform="matrix(1 0 0 1 483.4991 95.6904)" class="st1 st2">...</text>
<text transform="matrix(1 0 0 1 501.6587 95.6903)" class="st1 st2">... ... ... ...</text>
<text transform="matrix(1 0 0 1 268.9285 108.2639)" class="st1 st2">Ṣafad</text>
<text transform="matrix(1 0 0 1 329.0708 108.2639)" class="st1 st2">Dimašq</text>
<text transform="matrix(1 0 0 1 266.0856 25.3751)" class="st4 st2">what we see</text>
<g>
	<rect x="190.3" y="180.1" class="st0" width="72.2" height="19.8"/>
	<rect x="190.3" y="200" class="st0" width="72.2" height="19.8"/>
	<rect x="190.3" y="219.8" class="st0" width="72.2" height="19.8"/>
	<rect x="190.3" y="239.7" class="st0" width="72.2" height="19.8"/>
	<rect x="190.3" y="259.5" class="st0" width="72.2" height="19.8"/>
	<text transform="matrix(1 0 0 1 197.23 193.6259)" class="st3 st2">PERSON (ID)</text>
	<text transform="matrix(1 0 0 1 197.2302 213.4633)" class="st1 st2">2</text>
	<text transform="matrix(1 0 0 1 197.2299 233.4866)" class="st1 st2">1</text>
	<text transform="matrix(1 0 0 1 197.2303 252.3173)" class="st1 st2">3</text>
	<text transform="matrix(1 0 0 1 197.2306 273.4929)" class="st1 st2">... ... ... ...</text>
	<rect x="262" y="180.1" class="st0" width="60.6" height="19.8"/>
	<rect x="262" y="200" class="st0" width="60.6" height="19.8"/>
	<rect x="262" y="219.8" class="st0" width="60.6" height="19.8"/>
	<rect x="262" y="239.7" class="st0" width="60.6" height="19.8"/>
	<rect x="262" y="259.5" class="st0" width="60.6" height="19.8"/>
	<text transform="matrix(1 0 0 1 268.9276 193.6259)" class="st3 st2">BORN (ID)</text>
	<text transform="matrix(1 0 0 1 268.9281 273.4929)" class="st1 st2">... ... ... ...</text>
	<rect x="322.2" y="180.1" class="st0" width="60.6" height="19.8"/>
	<rect x="322.2" y="200" class="st0" width="60.6" height="19.8"/>
	<rect x="322.2" y="219.8" class="st0" width="60.6" height="19.8"/>
	<rect x="322.2" y="239.7" class="st0" width="60.6" height="19.8"/>
	<rect x="322.2" y="259.5" class="st0" width="60.6" height="19.8"/>
	<text transform="matrix(1 0 0 1 329.0705 193.6259)" class="st3 st2">DIED (ID)</text>
	<text transform="matrix(1 0 0 1 329.0706 233.4863)" class="st1 st2">1</text>
	<text transform="matrix(1 0 0 1 268.9279 213.4633)" class="st1 st2">2</text>
	<text transform="matrix(1 0 0 1 329.071 273.4929)" class="st1 st2">... ... ... ...</text>
	<text transform="matrix(1 0 0 1 268.9283 233.4865)" class="st1 st2">1</text>
	<text transform="matrix(1 0 0 1 329.0709 213.4632)" class="st1 st2">2</text>
	<text transform="matrix(1 0 0 1 268.9285 252.3175)" class="st1 st2">3</text>
	<text transform="matrix(1 0 0 1 329.0708 252.3174)" class="st1 st2">2</text>
</g>
<text transform="matrix(1 0 0 1 222.2689 169.4052)" class="st4 st2">what computer actually does</text>
<g>
	<line x1="107.4" y1="49.6" x2="179.5" y2="83.8"/>
	<g>
		<line class="st5" x1="107.4" y1="49.6" x2="166.7" y2="77.7"/>
		<g>
			<polygon points="179.5,83.8 158,82.6 165.8,77.3 165,67.9 			"/>
		</g>
	</g>
</g>
<g>
	<line x1="465.7" y1="49.6" x2="393.7" y2="83.8"/>
	<g>
		<line class="st5" x1="465.7" y1="49.6" x2="406.4" y2="77.7"/>
		<g>
			<polygon points="393.7,83.8 408.2,67.9 407.4,77.3 415.1,82.6 			"/>
		</g>
	</g>
</g>
<g>
	<line x1="200.3" y1="140.4" x2="200.3" y2="175.1"/>
	<g>
		<line class="st5" x1="200.3" y1="140.4" x2="200.3" y2="160.9"/>
		<g>
			<polygon points="200.3,175.1 192.2,155.2 200.3,159.9 208.5,155.2 			"/>
		</g>
	</g>
</g>
<g>
	<line x1="372.8" y1="140.4" x2="372.8" y2="175.1"/>
	<g>
		<line class="st5" x1="372.8" y1="140.4" x2="372.8" y2="160.9"/>
		<g>
			<polygon points="372.8,175.1 364.7,155.2 372.8,159.9 381,155.2 			"/>
		</g>
	</g>
</g>
</svg>
