<?xml version="1.0" encoding="utf-8"?>
<!-- Generator: Adobe Illustrator 22.1.0, SVG Export Plug-In . SVG Version: 6.00 Build 0)  -->
<svg version="1.1" id="Layer_1" xmlns="http://www.w3.org/2000/svg" xmlns:xlink="http://www.w3.org/1999/xlink" x="0px" y="0px"
	 viewBox="0 0 560 288" style="enable-background:new 0 0 560 288;" xml:space="preserve">
<style type="text/css">
	.st0{fill:#FFFFFF;stroke:#000000;stroke-miterlimit:10;}
	.st1{font-family:'CourierNewPS-BoldMT';}
	.st2{font-size:12px;}
	.st3{font-family:'Brill-Bold';}
	.st4{font-family:'Brill-Roman';}
	.st5{font-family:'Brill-Italic';}
	.st6{fill:none;stroke:#000000;stroke-width:4;stroke-miterlimit:10;}
</style>
<rect x="1.9" y="2.5" class="st0" width="98.7" height="19.8"/>
<rect x="100.6" y="2.5" class="st0" width="89.8" height="19.8"/>
<rect x="1.9" y="22.3" class="st0" width="98.7" height="19.8"/>
<rect x="100.6" y="22.3" class="st0" width="89.8" height="19.8"/>
<rect x="1.9" y="42.1" class="st0" width="98.7" height="19.8"/>
<rect x="100.6" y="42.1" class="st0" width="89.8" height="19.8"/>
<rect x="1.9" y="62" class="st0" width="98.7" height="19.8"/>
<rect x="100.6" y="62" class="st0" width="89.8" height="19.8"/>
<rect x="1.9" y="81.8" class="st0" width="98.7" height="19.8"/>
<rect x="100.6" y="81.8" class="st0" width="89.8" height="19.8"/>
<text transform="matrix(1 0 0 1 6.8194 35.7789)" class="st1 st2">0597IbnJawzi</text>
<text transform="matrix(1 0 0 1 6.8192 55.8022)" class="st1 st2">0748Dhahabi</text>
<text transform="matrix(1 0 0 1 7.0282 15.9414)" class="st3 st2">URI</text>
<text transform="matrix(1 0 0 1 107.4672 15.9415)" class="st3 st2">PERSON</text>
<text transform="matrix(1 0 0 1 107.4674 55.8025)" class="st4 st2">al-Ḏahabī, ...</text>
<text transform="matrix(1 0 0 1 107.4676 35.7785)" class="st4 st2">Ibn al-Jawzī, ...</text>
<text transform="matrix(1 0 0 1 107.4671 75.9654)" class="st4 st2">al-Ṣafadī, ...</text>
<text transform="matrix(1 0 0 1 8.8227 95.8085)" class="st4 st2">...</text>
<text transform="matrix(1 0 0 1 107.4678 95.8084)" class="st4 st2">... ... ... ...</text>
<rect x="349.6" y="2.5" class="st0" width="147.2" height="19.8"/>
<rect x="496.8" y="2.4" class="st0" width="60.6" height="19.8"/>
<rect x="349.6" y="22.3" class="st0" width="147.2" height="19.8"/>
<rect x="496.8" y="22.3" class="st0" width="60.6" height="19.8"/>
<rect x="349.6" y="42.1" class="st0" width="147.2" height="19.8"/>
<rect x="496.8" y="42.1" class="st0" width="60.6" height="19.8"/>
<rect x="349.6" y="62" class="st0" width="147.2" height="19.8"/>
<rect x="496.8" y="61.9" class="st0" width="60.6" height="19.8"/>
<text transform="matrix(1 0 0 1 354.7047 15.9414)" class="st3 st2">URI</text>
<text transform="matrix(1 0 0 1 501.6581 15.9021)" class="st3 st2">PLACE</text>
<text transform="matrix(1 0 0 1 501.6583 35.7394)" class="st4 st2">Baġdād</text>
<text transform="matrix(1 0 0 1 501.658 55.7628)" class="st4 st2">Dimašq</text>
<text transform="matrix(1 0 0 1 501.6584 75.9264)" class="st4 st2">Ṣafad</text>
<rect x="349.6" y="81.7" class="st0" width="147.2" height="19.8"/>
<rect x="496.8" y="81.7" class="st0" width="60.6" height="19.8"/>
<text transform="matrix(1 0 0 1 376.4991 95.7297)" class="st4 st2">...</text>
<text transform="matrix(1 0 0 1 501.6587 95.6903)" class="st4 st2">... ... ... ...</text>
<text transform="matrix(1 0 0 1 208.4298 162.8039)" class="st5 st2">what we see and what we do</text>
<g>
	<line x1="525" y1="107.8" x2="468.6" y2="164.2"/>
	<g>
		<line class="st6" x1="525" y1="107.8" x2="478.6" y2="154.2"/>
		<g>
			<polygon points="468.6,164.2 476.9,144.4 479.3,153.4 488.4,155.9 			"/>
		</g>
	</g>
</g>
<text transform="matrix(1 0 0 1 6.8192 75.9654)"><tspan x="0" y="0" class="st1 st2">076</tspan><tspan x="21.6" y="0" class="st1 st2">4</tspan><tspan x="29" y="0" class="st1 st2">Safadi</tspan></text>
<text transform="matrix(1 0 0 1 354.7051 75.9267)" class="st1 st2">SAFAD_352E325N_S</text>
<text transform="matrix(1 0 0 1 354.7051 55.8021)" class="st1 st2">DIMASHQ_363E335N_S</text>
<text transform="matrix(1 0 0 1 354.7052 35.7788)" class="st1 st2">BAGHDAD_443E333N_S</text>
<g>
	<rect x="78.4" y="170.4" class="st0" width="98.8" height="19.8"/>
	<rect x="78.4" y="190.2" class="st0" width="98.8" height="19.8"/>
	<rect x="78.4" y="210.1" class="st0" width="98.8" height="19.8"/>
	<rect x="78.4" y="229.9" class="st0" width="98.8" height="19.8"/>
	<rect x="78.4" y="249.8" class="st0" width="98.8" height="19.8"/>
	<text transform="matrix(1 0 0 1 83.2728 183.8893)" class="st3 st2">PERSON (URI)</text>
	<text transform="matrix(1 0 0 1 85.2733 263.7563)" class="st4 st2">... ... ... ...</text>
	<rect x="177.1" y="170.4" class="st0" width="142.9" height="19.8"/>
	<rect x="177.1" y="190.2" class="st0" width="142.9" height="19.8"/>
	<rect x="177.1" y="210.1" class="st0" width="142.9" height="19.8"/>
	<rect x="177.1" y="229.9" class="st0" width="142.9" height="19.8"/>
	<rect x="177.1" y="249.8" class="st0" width="142.9" height="19.8"/>
	<text transform="matrix(1 0 0 1 181.9703 183.8893)" class="st3 st2">BORN (URI)</text>
	<text transform="matrix(1 0 0 1 183.9709 263.7563)" class="st4 st2">... ... ... ...</text>
	<text transform="matrix(1 0 0 1 83.2733 203.727)" class="st1 st2">0748Dhahabi</text>
	<text transform="matrix(1 0 0 1 83.2728 223.7493)" class="st1 st2">0597IbnJawzi</text>
	<text transform="matrix(1 0 0 1 83.2728 244.0971)"><tspan x="0" y="0" class="st1 st2">076</tspan><tspan x="21.6" y="0" class="st1 st2">4</tspan><tspan x="29" y="0" class="st1 st2">Safadi</tspan></text>
	<text transform="matrix(1 0 0 1 183.9713 203.7268)" class="st1 st2">DIMASHQ_363E335N_S</text>
	<text transform="matrix(1 0 0 1 183.5031 244.097)" class="st1 st2">SAFAD_352E325N_S</text>
	<text transform="matrix(1 0 0 1 183.9715 223.7492)" class="st1 st2">BAGHDAD_443E333N_S</text>
	<rect x="320" y="170.4" class="st0" width="142.9" height="19.8"/>
	<rect x="320" y="190.2" class="st0" width="142.9" height="19.8"/>
	<rect x="320" y="210.1" class="st0" width="142.9" height="19.8"/>
	<rect x="320" y="229.9" class="st0" width="142.9" height="19.8"/>
	<rect x="320" y="249.8" class="st0" width="142.9" height="19.8"/>
	<text transform="matrix(1 0 0 1 324.8915 183.8893)" class="st3 st2">DIED (URI)</text>
	<text transform="matrix(1 0 0 1 326.892 263.7563)" class="st4 st2">... ... ... ...</text>
	<text transform="matrix(1 0 0 1 326.8925 203.7268)" class="st1 st2">DIMASHQ_363E335N_S</text>
	<text transform="matrix(1 0 0 1 326.8926 223.7492)" class="st1 st2">BAGHDAD_443E333N_S</text>
	<text transform="matrix(1 0 0 1 326.8928 244.097)" class="st1 st2">DIMASHQ_363E335N_S</text>
</g>
<g>
	<line x1="16.6" y1="107.8" x2="73" y2="164.2"/>
	<g>
		<line class="st6" x1="16.6" y1="107.8" x2="63.1" y2="154.2"/>
		<g>
			<polygon points="73,164.2 53.2,155.9 62.3,153.4 64.7,144.4 			"/>
		</g>
	</g>
</g>
</svg>
